<svg width="16" height="17" viewBox="0 0 16 17" fill="none" xmlns="http://www.w3.org/2000/svg">
<path d="M12.1644 11.2459C11.6416 10.7299 10.9891 10.7299 10.4697 11.2459C10.0734 11.6388 9.67722 12.0317 9.28767 12.4312C9.18112 12.5411 9.09122 12.5644 8.96137 12.4912C8.705 12.3513 8.43198 12.2381 8.18559 12.085C7.0369 11.3625 6.07467 10.4336 5.22231 9.38811C4.79946 8.86872 4.42322 8.3127 4.16019 7.68677C4.10692 7.56025 4.11691 7.47701 4.22012 7.3738C4.61634 6.99091 5.00256 6.59804 5.39212 6.20516C5.93483 5.65914 5.93483 5.01988 5.38879 4.47052C5.07914 4.15756 4.76949 3.85125 4.45985 3.53828C4.14021 3.21865 3.82391 2.8957 3.50094 2.5794C2.97821 2.07 2.32562 2.07 1.80621 2.58273C1.40667 2.9756 1.02377 3.37847 0.61757 3.76468C0.241333 4.12093 0.0515499 4.55709 0.0115955 5.06649C-0.0516656 5.89553 0.151436 6.67795 0.437775 7.44039C1.02377 9.01854 1.91609 10.4202 2.99818 11.7054C4.45985 13.4434 6.20452 14.8184 8.24553 15.8106C9.16448 16.2568 10.1167 16.5997 11.1522 16.6563C11.8647 16.6962 12.484 16.5164 12.9801 15.9604C13.3197 15.5809 13.7026 15.2346 14.0622 14.8717C14.5949 14.3323 14.5983 13.6798 14.0689 13.1471C13.4363 12.5111 12.8003 11.8785 12.1644 11.2459Z" fill="#00B300"/>
<path d="M11.5284 8.59236L12.757 8.3826C12.5639 7.25392 12.0312 6.23178 11.2221 5.4194C10.3664 4.56373 9.28434 4.02436 8.09237 3.85789L7.91923 5.09311C8.84151 5.22296 9.68055 5.63914 10.3431 6.3017C10.9691 6.92763 11.3786 7.72004 11.5284 8.59236Z" fill="#00B300"/>
<path d="M13.4496 3.25193C12.0312 1.83359 10.2366 0.937965 8.25551 0.661621L8.08238 1.89684C9.79376 2.13656 11.3453 2.91232 12.5706 4.13423C13.7326 5.29621 14.4951 6.76449 14.7714 8.37927L16 8.16952C15.677 6.29837 14.7947 4.60035 13.4496 3.25193Z" fill="#00B300"/>
</svg>
