<svg width="18" height="17" viewBox="0 0 18 17" fill="none" xmlns="http://www.w3.org/2000/svg">
<path d="M12.3042 13.1384L9.4383 11.749C9.168 11.6178 9 11.3543 9 11.061V10.0775C9.0687 9.99602 9.141 9.90322 9.2157 9.80082C9.5874 9.29173 9.8853 8.72504 10.1019 8.11384C10.5252 7.92562 10.8 7.5198 10.8 7.06162V5.89798C10.8 5.61784 10.692 5.34642 10.5 5.13435V3.587C10.5168 3.427 10.5828 2.47457 9.8724 1.68882C9.2562 1.00722 8.2563 0.661621 6.9 0.661621C5.5437 0.661621 4.5438 1.00722 3.9276 1.68853C3.2172 2.47428 3.2832 3.427 3.3 3.58671V5.13406C3.108 5.34613 3 5.61755 3 5.89769V7.06133C3 7.41537 3.1659 7.74555 3.4491 7.96577C3.7239 9.02089 4.299 9.81595 4.5 10.0711V11.0337C4.5 11.3153 4.3416 11.5736 4.0869 11.7086L1.4106 13.1242C0.5403 13.585 0 14.4676 0 15.4287V16.6616H13.8V15.4855C13.8 14.485 13.2267 13.5858 12.3042 13.1384Z" fill="#00B300"/>
<path d="M16.6401 13.4692L13.7232 12.2445C13.6542 12.211 13.5777 12.1293 13.512 12.0202L15.4695 12.0187C15.4695 12.0187 15.5826 12.0295 15.7581 12.0295C16.08 12.0295 16.5495 11.994 16.9581 11.8238C17.2032 11.7214 17.3856 11.5192 17.4588 11.269C17.5326 11.0165 17.4858 10.7492 17.331 10.5351C16.7715 9.763 15.4656 7.74555 15.4248 5.69929C15.4239 5.66409 15.3057 2.18424 11.7618 2.15602C11.4057 2.15893 11.0691 2.2014 10.7502 2.27616C10.9878 2.88533 10.9659 3.43049 10.9497 3.60736V4.98424C11.1441 5.25246 11.2497 5.571 11.2497 5.89798V7.06162C11.2497 7.61638 10.9485 8.12984 10.4676 8.41784C10.2432 9.00606 9.9462 9.55558 9.5829 10.053C9.5379 10.115 9.4935 10.1735 9.45 10.2287V11.0607C9.45 11.1893 9.5208 11.3007 9.6393 11.3581L12.5052 12.7474C13.5813 13.2693 14.2497 14.3181 14.2497 15.4849V16.6616H18V15.5861C18 14.6866 17.4846 13.8785 16.6401 13.4692Z" fill="#00B300"/>
</svg>
