<svg width="20" height="20" viewBox="0 0 20 20" fill="none" xmlns="http://www.w3.org/2000/svg">
<path d="M11 9.9999L8.69802 7.4939C8.50202 7.2959 8.50202 6.9749 8.69802 6.7759C8.89402 6.5789 9.21303 6.5789 9.40802 6.7759L12.215 9.6399C12.411 9.8389 12.411 10.1599 12.215 10.3569L9.40802 13.2209C9.21303 13.4199 8.89402 13.4189 8.69802 13.2209C8.50202 13.0239 8.50202 12.7029 8.69802 12.5039L11 9.9999ZM10 0.399902C15.302 0.399902 19.6 4.6979 19.6 9.9999C19.6 15.3029 15.302 19.5999 10 19.5999C4.69802 19.5999 0.400024 15.3029 0.400024 9.9999C0.400024 4.6979 4.69802 0.399902 10 0.399902ZM10 18.3539C14.613 18.3539 18.354 14.6139 18.354 9.9999C18.354 5.3859 14.613 1.6459 10 1.6459C5.38503 1.6459 1.64602 5.3859 1.64602 9.9999C1.64502 14.6139 5.38503 18.3539 10 18.3539Z" fill="#C8C239" fill-opacity="0.7"/>
</svg>
