<svg width="53" height="49" viewBox="0 0 53 49" fill="none" xmlns="http://www.w3.org/2000/svg">
<path d="M52.9998 7.08912C52.9998 7.08333 52.9991 7.07753 52.9989 7.07163C52.9983 7.04854 52.9969 7.02577 52.9942 7.0032C52.9932 6.99492 52.9917 6.98664 52.9904 6.97836C52.9873 6.95755 52.9835 6.93706 52.9787 6.91698C52.9769 6.90901 52.9748 6.90114 52.9726 6.89317C52.9666 6.87133 52.9598 6.8499 52.9519 6.82878C52.9505 6.82474 52.9495 6.8206 52.948 6.81667L50.842 1.42538C50.6296 0.88213 50.1155 0.531006 49.5322 0.531006H45.6975C45.2796 0.531006 44.9407 0.869812 44.9407 1.28781C44.9407 1.7058 45.2796 2.04461 45.6975 2.04461H49.4589L51.1349 6.33522H35.2894L34.2966 2.04461H40.1486C40.5666 2.04461 40.9054 1.7058 40.9054 1.28781C40.9054 0.869812 40.5666 0.531006 40.1486 0.531006H33.3446H25.719H9.53133C8.94792 0.531006 8.43386 0.88213 8.22155 1.42559L6.11553 6.81667C6.11398 6.82071 6.11315 6.82485 6.11159 6.82878C6.10373 6.84979 6.09689 6.87122 6.09089 6.89317C6.08872 6.90114 6.08665 6.90901 6.08478 6.91698C6.08002 6.93716 6.07619 6.95766 6.07309 6.97836C6.07184 6.98664 6.07029 6.99492 6.06926 7.0032C6.06667 7.02577 6.06522 7.04854 6.0646 7.07163C6.06449 7.07743 6.06377 7.08322 6.06367 7.08912C6.06367 7.09005 6.06356 7.09099 6.06356 7.09192V18.2105C6.06356 18.6285 6.40237 18.9673 6.82036 18.9673C7.23836 18.9673 7.57717 18.6285 7.57717 18.2105V7.84882H23.6192V19.3523C23.6192 19.8022 23.8842 20.2121 24.2944 20.3967C24.4446 20.4642 24.6045 20.4973 24.7634 20.4973C25.0384 20.4973 25.3103 20.3985 25.5235 20.2095L29.5318 16.6585L33.54 20.2094C33.8765 20.5078 34.3591 20.5812 34.7693 20.3967C35.1795 20.212 35.4445 19.8022 35.4445 19.3523V7.84882H51.4863V41.7939C51.4863 42.337 51.0444 42.7789 50.5014 42.7789H36.6248C36.6248 42.7703 36.6238 42.7617 36.6237 42.7531C36.6229 42.6852 36.6204 42.6174 36.6146 42.5501C37.9175 42.8955 39.3097 42.2259 39.8318 40.9454C40.1065 40.2718 40.1024 39.5317 39.8204 38.8613C39.7938 38.7982 39.7645 38.7369 39.7336 38.6765C39.7279 38.6655 39.7224 38.6543 39.7167 38.6433C39.6864 38.5858 39.6541 38.5296 39.6201 38.4748C39.6134 38.4641 39.6066 38.4538 39.5999 38.4432C39.5638 38.387 39.5265 38.3318 39.4866 38.2787C39.4859 38.2777 39.4851 38.2768 39.4843 38.2758C39.4448 38.2234 39.403 38.1728 39.3598 38.1235C39.3519 38.1145 39.3442 38.1053 39.3362 38.0963C39.2935 38.0487 39.2491 38.0027 39.2031 37.9583C39.1941 37.9496 39.185 37.9412 39.1759 37.9327C39.1277 37.8874 39.0785 37.8435 39.0271 37.8019C39.0254 37.8006 39.0236 37.7993 39.0218 37.7979C38.9713 37.7572 38.9188 37.7187 38.8653 37.6817C38.8557 37.6749 38.8462 37.6681 38.8363 37.6615C38.7828 37.6254 38.728 37.5914 38.6716 37.559C38.667 37.5563 38.6627 37.5532 38.658 37.5505C38.9778 37.2737 39.2303 36.9234 39.3947 36.5203C39.6693 35.8467 39.6653 35.1066 39.3832 34.4361C39.1364 33.8495 38.7026 33.3777 38.1469 33.0849C38.0675 33.0431 37.9856 33.0049 37.9015 32.9707L26.1228 28.1679L31.6056 26.4708C32.91 26.067 33.6446 24.6758 33.2432 23.3697C33.0934 22.8822 32.7964 22.471 32.4128 22.1705C31.8419 21.7232 31.0789 21.5212 30.3222 21.6801C30.3186 21.681 30.3151 21.6816 30.3114 21.6825C30.2695 21.6919 26.0664 22.637 21.6766 23.493C21.4819 23.531 21.2921 23.5676 21.1051 23.6037C20.9554 23.6324 20.8078 23.6608 20.663 23.6883C20.6213 23.6963 20.5796 23.7042 20.5383 23.712C20.2826 23.7606 20.0349 23.8071 19.7942 23.8518C19.6973 23.8698 19.6012 23.8876 19.5067 23.905C13.9938 24.9206 12.4451 24.9388 12.0153 24.8806C12.0136 24.8804 12.0122 24.8802 12.0105 24.8799C12.004 24.879 11.9976 24.878 11.9916 24.8771C11.9872 24.8764 11.9832 24.8757 11.9792 24.875C11.9763 24.8745 11.9732 24.874 11.9704 24.8736C11.9435 24.8687 11.9226 24.8637 11.9065 24.8588L11.7825 24.8083L11.937 24.4293C12.089 24.0566 12.0867 23.6471 11.9307 23.2762C11.8917 23.1835 11.8442 23.0959 11.7891 23.0144C11.6239 22.7697 11.3903 22.5793 11.1108 22.4653L7.04592 20.8079C6.67337 20.6559 6.26376 20.6582 5.89287 20.8142C5.52187 20.9702 5.23399 21.2614 5.08203 21.634L0.111529 33.8243C-0.202122 34.5935 0.168566 35.4744 0.93779 35.7882L5.00274 37.4456C5.18834 37.5213 5.38036 37.5571 5.56948 37.5571C6.16397 37.5571 6.72855 37.2029 6.96653 36.6194L7.0039 36.5278L7.94113 36.9098C7.94164 36.9101 7.94216 36.9104 7.94278 36.9106C8.83923 37.2761 9.66518 37.7976 10.3801 38.4448C10.5101 38.5625 10.6364 38.6843 10.7588 38.8101C10.8813 38.9359 10.9997 39.0657 11.1141 39.1992C11.1712 39.266 11.2274 39.3338 11.2824 39.4024C12.3241 40.7013 13.6896 41.7202 15.2313 42.3489L16.2857 42.7788H8.56222C8.01918 42.7788 7.57727 42.3368 7.57727 41.7938V39.8789C7.57727 39.4609 7.23846 39.1221 6.82047 39.1221C6.40247 39.1221 6.06367 39.4609 6.06367 39.8789V41.7938C6.06367 43.1715 7.18443 44.2924 8.56222 44.2924H19.9979L29.7471 48.2676C30.0827 48.4044 30.4299 48.4693 30.7718 48.4692C31.8461 48.4692 32.8666 47.829 33.2967 46.7742C33.4731 46.3417 33.5297 45.8895 33.4822 45.4548C33.9893 45.5276 34.5151 45.4608 34.9917 45.2551C35.476 45.0458 35.8775 44.7126 36.1625 44.2923H50.5015C51.8792 44.2923 53 43.1715 53 41.7937V7.09202C52.9999 7.09099 52.9998 7.09016 52.9998 7.08912ZM26.3206 2.04461H32.7429L33.7357 6.33522H25.3278L26.3206 2.04461ZM23.7742 6.33522H7.9286L9.60462 2.04461H24.767L23.7742 6.33522ZM33.9311 18.5336H33.931L30.2911 15.3091C30.0747 15.1174 29.8033 15.0215 29.532 15.0215C29.2605 15.0215 28.989 15.1174 28.7726 15.3091L25.1329 18.5336V7.84882H33.9311V18.5336ZM5.56762 36.0414L1.51572 34.3892L6.48094 22.2122L10.5328 23.8644L5.56762 36.0414ZM35.8029 40.6086L34.9343 40.2543C34.9339 40.2541 34.9335 40.254 34.9331 40.2538C34.9328 40.2537 34.9325 40.2535 34.9322 40.2534C34.932 40.2534 34.9319 40.2533 34.9318 40.2533L25.886 36.5649C25.4991 36.4072 25.0574 36.5929 24.8995 36.98C24.7417 37.3671 24.9275 37.8088 25.3146 37.9666L34.3606 41.6551C34.3984 41.6705 34.435 41.6876 34.4703 41.7063C34.4802 41.7116 34.4894 41.718 34.4991 41.7235C34.524 41.7376 34.5489 41.7517 34.5724 41.7673C34.5837 41.7749 34.5941 41.7836 34.605 41.7914C34.6259 41.8063 34.6471 41.821 34.6667 41.8372C34.6786 41.8469 34.6894 41.8578 34.7009 41.8679C34.7185 41.8836 34.7365 41.8987 34.7531 41.9152C34.7646 41.9266 34.7748 41.9391 34.7858 41.9509C34.801 41.9673 34.8166 41.9833 34.8309 42.0005C34.8418 42.0137 34.8513 42.0276 34.8617 42.0412C34.8746 42.0582 34.8881 42.0749 34.9 42.0925C34.91 42.1072 34.9186 42.1227 34.9279 42.1377C34.9387 42.1551 34.9501 42.1722 34.9599 42.1901C34.9688 42.2062 34.9762 42.2231 34.9844 42.2395C34.9931 42.2572 35.0025 42.2746 35.0104 42.2928C35.018 42.3101 35.0241 42.3282 35.0308 42.3459C35.0376 42.3638 35.0451 42.3814 35.0511 42.3996C35.0571 42.4179 35.0616 42.4366 35.0667 42.4552C35.0718 42.4735 35.0775 42.4915 35.0817 42.51C35.086 42.5288 35.0887 42.5478 35.0921 42.5667C35.0955 42.5855 35.0994 42.6041 35.1019 42.6232C35.1044 42.6422 35.1053 42.6615 35.1069 42.6806C35.1084 42.6999 35.1107 42.719 35.1113 42.7383C35.112 42.7572 35.111 42.7764 35.1108 42.7954C35.1106 42.8151 35.1109 42.8348 35.1097 42.8545C35.1085 42.8733 35.1057 42.892 35.1037 42.9107C35.1015 42.9309 35.0998 42.9511 35.0965 42.9712C35.0935 42.9896 35.0889 43.0079 35.085 43.0264C35.0807 43.0468 35.0771 43.0672 35.0716 43.0874C35.0668 43.1054 35.0604 43.1232 35.0547 43.141C35.0483 43.1612 35.0424 43.1815 35.0348 43.2015C35.0284 43.2153 35.0221 43.2292 35.0162 43.2431C35.0149 43.2463 35.0141 43.2496 35.0129 43.2528C34.8947 43.5257 34.6765 43.7426 34.3915 43.8657C34.0778 44.001 33.7187 44.0057 33.4061 43.8782L31.8034 43.2247C31.7959 43.2217 31.7884 43.2196 31.7809 43.2168C31.7734 43.2134 31.7662 43.2095 31.7586 43.2064L24.4011 40.2064C24.0139 40.0486 23.5724 40.2343 23.4146 40.6215C23.2568 41.0085 23.4426 41.4502 23.8296 41.6081L31.1871 44.6081C31.1949 44.6113 31.2029 44.6136 31.2109 44.6165C31.218 44.6196 31.2246 44.6234 31.232 44.6263C31.8495 44.8782 32.1471 45.5854 31.8953 46.2028C31.6435 46.8205 30.9366 47.1182 30.3188 46.8662L20.4336 42.8355C20.4332 42.8353 20.4327 42.8351 20.4323 42.8349L15.8031 40.9473C14.9882 40.615 14.2316 40.1538 13.5636 39.5864C13.1628 39.246 12.7939 38.8674 12.4635 38.4554C12.138 38.0496 11.7808 37.671 11.3966 37.3231C10.5512 36.5578 9.5745 35.9412 8.5146 35.5089C8.5145 35.5089 8.51439 35.5088 8.51429 35.5088L7.57582 35.1262L9.445 30.542L11.2114 26.21L11.3417 26.2631C11.4644 26.3131 11.6393 26.3841 12.1101 26.4019C12.6983 26.4285 13.6713 26.3671 15.4145 26.1208C16.6003 25.9534 18.0548 25.7111 19.7528 25.3987C19.7946 25.3911 19.8361 25.3834 19.8783 25.3756C19.9577 25.3609 20.0379 25.346 20.1185 25.3311C20.1811 25.3195 20.244 25.3077 20.3075 25.2958C20.3797 25.2823 20.4523 25.2687 20.5254 25.2549C20.6029 25.2403 20.6814 25.2255 20.7603 25.2105C20.8234 25.1985 20.8865 25.1866 20.9502 25.1745C21.0464 25.1562 21.1442 25.1375 21.2423 25.1186C21.2929 25.1089 21.3429 25.0994 21.3938 25.0896C21.5441 25.0606 21.6964 25.0312 21.8514 25.0011C26.2261 24.1502 30.4485 23.2032 30.6382 23.1605C30.6572 23.1566 30.6761 23.1543 30.6951 23.1515C31.1812 23.0796 31.6574 23.3607 31.7969 23.8143C31.8458 23.9737 31.8515 24.1364 31.8207 24.2894C31.7529 24.6261 31.5082 24.9167 31.1584 25.0248L23.6554 27.3471C23.3499 27.4417 23.1369 27.7178 23.1231 28.0372C23.1092 28.3566 23.2974 28.6502 23.5935 28.7709L37.3304 34.3723C37.6296 34.4942 37.8633 34.7254 37.9885 35.0232C38.1138 35.321 38.1157 35.6498 37.9936 35.9488C37.8716 36.248 37.6405 36.4817 37.3427 36.607C37.1939 36.6695 37.0372 36.7012 36.8804 36.7021C36.8781 36.7021 36.8759 36.7018 36.8736 36.7018C36.8367 36.7018 36.8 36.7003 36.7632 36.6969C36.7524 36.6959 36.7416 36.6936 36.7307 36.6924C36.7027 36.6889 36.6746 36.6857 36.6468 36.6804C36.6292 36.6769 36.6118 36.6718 36.5943 36.6676C36.5734 36.6627 36.5524 36.6584 36.5317 36.6523C36.5102 36.646 36.4892 36.6376 36.4681 36.63C36.4513 36.624 36.4343 36.6191 36.4177 36.6123L27.3709 32.9235C26.9838 32.7656 26.5422 32.9514 26.3844 33.3386C26.2265 33.7256 26.4123 34.1673 26.7995 34.3252L37.7674 38.7973C37.8423 38.8278 37.913 38.8652 37.9789 38.9086C38.1767 39.0391 38.3317 39.2249 38.4256 39.4483C38.5352 39.7088 38.5503 39.9931 38.4706 40.2604C38.4592 40.2986 38.4459 40.3365 38.4307 40.3739C38.4149 40.4125 38.3974 40.4499 38.3783 40.4859C38.3337 40.5697 38.2793 40.6455 38.2187 40.7146C38.181 40.7574 38.1407 40.7974 38.0979 40.834C38.091 40.8398 38.0848 40.8464 38.0779 40.852C37.8017 41.0779 37.4325 41.175 37.0717 41.1021C36.9985 41.0873 36.9258 41.0663 36.8541 41.0371L35.8029 40.6086Z" fill="#CAC63B"/>
</svg>
