<svg width="35" height="35" viewBox="0 0 35 35" fill="none" xmlns="http://www.w3.org/2000/svg">
<path d="M17.5 0C7.8349 0 0 7.8349 0 17.5C0 27.1651 7.8349 35 17.5 35C27.1651 35 35 27.1651 35 17.5C35 7.8349 27.1651 0 17.5 0ZM24.2302 19.744C24.2302 19.744 25.7779 21.2716 26.1589 21.9807C26.1698 21.9953 26.1753 22.0099 26.1789 22.0172C26.3339 22.2779 26.3703 22.4802 26.2938 22.6315C26.1661 22.8831 25.7286 23.007 25.5792 23.018C25.5792 23.018 22.9214 23.018 22.8448 23.018C22.6552 23.018 22.2578 22.9688 21.7766 22.637C21.4065 22.3781 21.0419 21.9534 20.6865 21.5396C20.156 20.9234 19.6966 20.3911 19.2336 20.3911C19.1753 20.3911 19.1151 20.4003 19.0604 20.4185C18.7104 20.5315 18.262 21.031 18.262 22.3617C18.262 22.7773 17.9339 23.0161 17.7023 23.0161C17.7023 23.0161 16.5083 23.0161 16.45 23.0161C16.0234 23.0161 13.8013 22.8667 11.8326 20.7904C9.42266 18.2474 7.25339 13.1469 7.23516 13.0995C7.09844 12.7695 7.38099 12.5927 7.68906 12.5927H10.4508C10.819 12.5927 10.9393 12.8169 11.0232 13.0156C11.1216 13.2471 11.4826 14.1677 12.075 15.2031C13.0357 16.8911 13.6245 17.5766 14.0966 17.5766C14.1859 17.5766 14.268 17.5529 14.35 17.5109C14.9661 17.1682 14.8513 14.9716 14.824 14.5159C14.824 14.4302 14.8221 13.5333 14.5068 13.1031C14.2807 12.7914 13.8961 12.6729 13.6628 12.6292C13.7229 12.5398 13.8578 12.4031 14.0255 12.3211C14.4484 12.1096 15.2104 12.0786 15.9669 12.0786H16.388C17.2083 12.0896 17.4198 12.1424 17.7169 12.2172C18.3185 12.3612 18.3313 12.7495 18.2784 14.0784C18.262 14.4557 18.2456 14.8823 18.2456 15.3854C18.2456 15.4948 18.2401 15.6115 18.2401 15.7354C18.2219 16.4117 18.2 17.1792 18.6776 17.4945C18.7396 17.5328 18.8107 17.5547 18.8854 17.5547C19.0513 17.5547 19.5508 17.5547 20.9034 15.2341C21.4958 14.2096 21.9552 13.001 21.988 12.9117C22.0154 12.8643 22.0956 12.7185 22.1904 12.662C22.2651 12.6182 22.3654 12.6091 22.4164 12.6091H25.663C26.0167 12.6091 26.2591 12.662 26.3047 12.7987C26.3849 13.0156 26.2901 13.6773 24.8081 15.6844C24.5583 16.0161 24.3378 16.306 24.1464 16.5576C22.8029 18.3185 22.8029 18.4078 24.2302 19.744Z" fill="#5B7EA2"/>
</svg>
