<svg width="35" height="35" viewBox="0 0 35 35" fill="none" xmlns="http://www.w3.org/2000/svg">
<path d="M16.6352 13.0199C16.7553 13.092 16.9115 13.14 17.0556 13.128C17.2117 13.14 17.3679 13.104 17.5 13.0199C17.6081 12.9598 17.6682 12.8518 17.6682 12.7196V10.1973C17.6682 10.0892 17.5961 10.0051 17.5 9.9571C17.3679 9.88504 17.2117 9.86102 17.0676 9.86102C16.9235 9.849 16.7914 9.88504 16.6592 9.9571C16.5631 10.0051 16.5031 10.0892 16.5031 10.1973V12.7196C16.4911 12.8397 16.5391 12.9478 16.6352 13.0199Z" fill="#FA141B"/>
<path d="M14.8456 24.058C14.7375 24.1541 14.6174 24.2261 14.4852 24.2862C14.3892 24.3342 14.2811 24.3703 14.1609 24.3823C14.0769 24.3943 13.9928 24.3703 13.9207 24.3102C13.8727 24.2502 13.8487 24.1661 13.8487 24.094V20.779H12.6956V24.3823C12.6836 24.5985 12.7557 24.8027 12.8998 24.9708C13.0679 25.115 13.2841 25.187 13.5003 25.163C13.7286 25.163 13.9568 25.115 14.173 25.0189C14.4132 24.9228 14.6414 24.7907 14.8336 24.6225V25.0909H15.9866L15.9986 20.779H14.8456V24.058Z" fill="#FA141B"/>
<path d="M9.42862 20.4547H10.5336V25.0309H11.6026V20.4547H12.6956L12.7076 19.674H9.42862V20.4547Z" fill="#FA141B"/>
<path d="M17.5 0C7.83116 0 0 7.83116 0 17.5C0 27.1688 7.83116 35 17.5 35C27.1688 35 35 27.1688 35 17.5C35 7.83116 27.1568 0 17.5 0ZM20.0223 13.2121V8.76802H21.0553V12.8517C21.0432 12.9478 21.0673 13.0439 21.1273 13.128C21.1754 13.1881 21.2594 13.2241 21.3315 13.2121C21.4396 13.2001 21.5357 13.164 21.6198 13.104C21.7399 13.0199 21.848 12.9238 21.9321 12.8157V8.76802H22.965V14.0769H21.9321V13.4883C21.7639 13.6925 21.5597 13.8607 21.3315 13.9808C21.1273 14.0889 20.9231 14.209 20.731 14.209C20.5148 14.197 20.3226 14.1009 20.2025 13.9207C20.0703 13.7165 19.9983 13.4643 20.0223 13.2121ZM15.314 10.0652C15.302 9.68085 15.4942 9.33253 15.8065 9.11634C16.1307 8.87612 16.5752 8.76802 17.1277 8.76802C17.5721 8.74399 18.0045 8.87612 18.3648 9.14036C18.6771 9.36857 18.8572 9.71688 18.8452 10.1012V12.7557C18.8572 13.152 18.6891 13.5364 18.3768 13.7886C18.0045 14.0769 17.548 14.221 17.0796 14.209C16.6112 14.221 16.1668 14.0649 15.8065 13.7646C15.4942 13.5124 15.314 13.128 15.326 12.7196V10.0652H15.314ZM12.2512 6.57001L13.092 9.63281H13.1881L13.9928 6.57001H15.314L13.8006 11.0501V14.233H12.4914V11.1942L10.93 6.57001H12.2512ZM26.9166 23.8658C26.9166 25.7756 25.3071 27.325 23.3253 27.325H10.8339C8.85209 27.325 7.24262 25.7756 7.24262 23.8658V20.9472C7.24262 19.0374 8.85209 17.488 10.8339 17.488H23.3253C25.3071 17.488 26.9166 19.0374 26.9166 20.9472V23.8658Z" fill="#FA141B"/>
<path d="M20.3466 22.0522C20.3706 21.7759 20.2625 21.4997 20.0583 21.3075C19.8662 21.1393 19.5899 21.0553 19.2296 21.0553C19.0494 21.0553 18.8693 21.0913 18.7011 21.1513C18.5209 21.2234 18.3648 21.3075 18.2086 21.4276V19.686H17.0556V25.103H18.2086V24.8027C18.3528 24.9228 18.5209 25.0189 18.6891 25.0789C18.8813 25.139 19.0854 25.163 19.2896 25.163C19.6259 25.163 19.8902 25.0909 20.0583 24.9348C20.2385 24.7666 20.3466 24.5264 20.3226 24.2862L20.3466 22.0522ZM19.1815 24.1541C19.1935 24.2502 19.1575 24.3583 19.0854 24.4303C19.0014 24.4904 18.8933 24.5264 18.7852 24.5144L18.5089 24.4664C18.4128 24.4303 18.3167 24.3823 18.2447 24.3222V21.836L18.4849 21.7159L18.7251 21.6798C18.8452 21.6798 18.9774 21.7159 19.0734 21.7879C19.1575 21.872 19.2056 21.9801 19.1935 22.0882V24.1541H19.1815Z" fill="#FA141B"/>
<path d="M23.6016 23.8298C23.6016 24.07 23.5655 24.2262 23.4935 24.2982C23.3854 24.3823 23.2412 24.4183 23.1091 24.4063C22.977 24.4183 22.8329 24.3703 22.7368 24.2862C22.6527 24.1541 22.6167 23.9859 22.6287 23.8298V23.0491H24.7426V21.9921C24.7666 21.6438 24.6105 21.3075 24.3342 21.0913C24.058 20.8871 23.6616 20.779 23.1572 20.779C22.6647 20.779 22.2563 20.8871 21.9441 21.1153C21.6438 21.3075 21.4636 21.6438 21.4756 21.9921V23.8538C21.4636 24.2141 21.6198 24.5625 21.908 24.7907C22.1963 25.0189 22.5806 25.127 23.0851 25.127C23.6376 25.127 24.046 25.0189 24.3342 24.8027C24.6105 24.5865 24.7546 24.2622 24.7546 23.8418V23.6256H23.6136V23.8298H23.6016ZM22.7848 21.6198C22.8929 21.5357 23.0251 21.4876 23.1692 21.5117C23.3013 21.4997 23.4334 21.5357 23.5415 21.6198C23.6256 21.7279 23.6736 21.86 23.6616 21.9921V22.4125H22.6767V21.9801C22.6527 21.848 22.6887 21.7159 22.7848 21.6198Z" fill="#FA141B"/>
</svg>
