<svg width="25" height="25" viewBox="0 0 25 25" fill="none" xmlns="http://www.w3.org/2000/svg">
<path d="M13.7754 12.6399L10.8927 9.5017C10.6473 9.25376 10.6473 8.85178 10.8927 8.60258C11.1382 8.35589 11.5376 8.35589 11.7818 8.60258L15.2969 12.1891C15.5424 12.4383 15.5424 12.8402 15.2969 13.0869L11.7818 16.6734C11.5376 16.9226 11.1382 16.9214 10.8927 16.6734C10.6473 16.4267 10.6473 16.0247 10.8927 15.7755L13.7754 12.6399ZM12.5232 0.618164C19.1627 0.618164 24.5449 6.00038 24.5449 12.6399C24.5449 19.2806 19.1627 24.6616 12.5232 24.6616C5.88368 24.6616 0.501465 19.2806 0.501465 12.6399C0.501465 6.00038 5.88368 0.618164 12.5232 0.618164ZM12.5232 23.1013C18.2999 23.1013 22.9846 18.4178 22.9846 12.6399C22.9846 6.86194 18.2999 2.17848 12.5232 2.17848C6.74399 2.17848 2.06178 6.86194 2.06178 12.6399C2.06053 18.4178 6.74399 23.1013 12.5232 23.1013Z" fill="#00B300"/>
</svg>
