<svg width="19" height="16" viewBox="0 0 19 16" fill="none" xmlns="http://www.w3.org/2000/svg">
<path d="M17.6535 1.29172C16.7557 0.430452 15.5153 0 13.9318 0C13.4936 0 13.0464 0.0746486 12.5906 0.223873C12.1346 0.373207 11.7104 0.574678 11.3184 0.828141C10.926 1.08153 10.5887 1.31949 10.3057 1.54165C10.0231 1.76388 9.75444 2.00005 9.50002 2.24997C9.24548 2.00005 8.97688 1.76388 8.69423 1.54165C8.4114 1.31949 8.07397 1.08168 7.68159 0.828141C7.28928 0.574569 6.86514 0.373244 6.40925 0.223873C5.9534 0.0746851 5.50624 0 5.06803 0C3.48464 0 2.2442 0.430562 1.34653 1.29172C0.44887 2.15281 0 3.34719 0 4.87497C0 5.34027 0.0831859 5.81954 0.249224 6.31241C0.415261 6.80547 0.604472 7.22568 0.816485 7.57283C1.02846 7.91995 1.26885 8.25861 1.53745 8.58847C1.80606 8.91837 2.00237 9.1456 2.12592 9.27071C2.24958 9.39556 2.34681 9.48593 2.41748 9.54139L9.03347 15.8123C9.16074 15.9374 9.31623 16 9.49998 16C9.68373 16 9.83934 15.9374 9.96653 15.8126L16.572 9.56241C18.1907 7.97227 19 6.40972 19 4.87497C19 3.34719 18.5511 2.15281 17.6535 1.29172Z" fill="#FE0101"/>
</svg>
