<svg width="13" height="10" viewBox="0 0 13 10" fill="none" xmlns="http://www.w3.org/2000/svg">
<path d="M6.50003 2.01865L1.86364 5.7132C1.86364 5.71841 1.86228 5.72608 1.85957 5.73654C1.85691 5.74691 1.8555 5.75445 1.8555 5.7598V9.50092C1.8555 9.63599 1.90659 9.75305 2.00875 9.85163C2.11087 9.95026 2.23181 9.99989 2.37158 9.99989H5.46782V7.00691H7.53227V10H10.6285C10.7682 10 10.8893 9.95048 10.9913 9.85163C11.0935 9.75316 11.1447 9.63602 11.1447 9.50092V5.7598C11.1447 5.73905 11.1418 5.72338 11.1366 5.7132L6.50003 2.01865Z" fill="#2E75B3"/>
<path d="M12.9103 4.8714L11.1445 3.45287V0.272857C11.1445 0.200159 11.1204 0.140373 11.0718 0.0935821C11.0237 0.0468457 10.9619 0.0234774 10.8865 0.0234774H9.33835C9.26305 0.0234774 9.20123 0.0468457 9.15279 0.0935821C9.10447 0.140373 9.08032 0.200186 9.08032 0.272857V1.79269L7.11289 0.202643C6.94106 0.0675385 6.73675 0 6.50019 0C6.26366 0 6.05938 0.0675385 5.88738 0.202643L0.0896013 4.8714C0.0358556 4.9129 0.00639857 4.96875 0.000919508 5.03891C-0.00453131 5.10901 0.01425 5.17025 0.05732 5.22217L0.557242 5.79895C0.600312 5.84569 0.656684 5.87427 0.726585 5.88472C0.791119 5.88997 0.855654 5.87173 0.920188 5.83018L6.50002 1.33283L12.0799 5.83015C12.123 5.86641 12.1794 5.88451 12.2493 5.88451H12.2735C12.3433 5.87424 12.3995 5.84547 12.4428 5.79884L12.9428 5.22214C12.9858 5.17011 13.0046 5.10899 12.999 5.0388C12.9935 4.96883 12.964 4.91298 12.9103 4.8714Z" fill="#2E75B3"/>
</svg>
