<svg width="32" height="38" viewBox="0 0 32 38" fill="none" xmlns="http://www.w3.org/2000/svg">
<path fill-rule="evenodd" clip-rule="evenodd" d="M15.6316 33.471C12.9784 33.4951 10.3996 32.5943 8.33838 30.9235C6.2772 29.2526 4.86233 26.9161 4.33691 24.3153C3.8115 21.7145 4.20831 19.0119 5.45923 16.6719C6.71015 14.332 8.73689 12.5008 11.1914 11.493L11.8215 13.001C9.71759 13.8813 7.98329 15.463 6.91357 17.4772C5.84386 19.4915 5.50468 21.814 5.95361 24.0501C6.40254 26.2861 7.61194 28.2978 9.37622 29.743C11.1405 31.1883 13.3509 31.9781 15.6316 31.9781C17.9123 31.9781 20.1224 31.1883 21.8867 29.743C23.651 28.2978 24.8604 26.2861 25.3093 24.0501C25.7583 21.814 25.4191 19.4915 24.3494 17.4772C23.2797 15.463 21.5454 13.8813 19.4414 13.001L20.0715 11.494C22.5265 12.5013 24.5537 14.3323 25.8049 16.6724C27.0562 19.0124 27.4532 21.7152 26.9277 24.3162C26.4023 26.9172 24.9871 29.2539 22.9255 30.9246C20.864 32.5953 18.285 33.4957 15.6316 33.471ZM20.5615 4.89999H15.6316V3.268H18.9214V1.63501H12.3416V3.268H13.9814V4.89999H10.6914V0H20.5615V4.89999ZM15.6316 37.557C11.7125 37.5902 7.92624 36.1376 5.03516 33.4915C2.14407 30.8454 0.362629 27.2024 0.049558 23.2957C-0.263513 19.389 0.915098 15.5088 3.3479 12.4361C5.7807 9.36338 9.28705 7.32634 13.1614 6.73501V5.72H14.8015V8.17999L14.0715 8.26001C10.5194 8.65743 7.25438 10.3998 4.94678 13.1293C2.63918 15.8588 1.46406 19.3683 1.66308 22.937C1.8621 26.5057 3.42006 29.8627 6.01684 32.3187C8.61363 34.7748 12.0522 36.1433 15.6265 36.1433C19.2007 36.1433 22.6393 34.7748 25.2361 32.3187C27.8329 29.8627 29.3908 26.5057 29.5898 22.937C29.7889 19.3683 28.614 15.8588 26.3064 13.1293C23.9988 10.3998 20.7335 8.65743 17.1814 8.26001L16.4514 8.17999V5.72H18.1016V6.73501C21.9759 7.32634 25.4822 9.36338 27.915 12.4361C30.3478 15.5088 31.5265 19.389 31.2134 23.2957C30.9003 27.2024 29.1189 30.8454 26.2278 33.4915C23.3367 36.1376 19.5506 37.5902 15.6316 37.557ZM15.6316 25.313C14.9867 25.3083 14.3574 25.1127 13.8235 24.7509C13.2896 24.3892 12.8749 23.8775 12.6313 23.2803C12.3878 22.6831 12.3264 22.0272 12.4551 21.3953C12.5838 20.7633 12.8968 20.1836 13.3545 19.7292C13.8122 19.2749 14.3942 18.9662 15.0271 18.8421C15.66 18.718 16.3155 18.7841 16.9109 19.032C17.5063 19.2799 18.015 19.6985 18.3728 20.235C18.7306 20.7716 18.9214 21.4021 18.9214 22.047C18.9172 22.9157 18.5683 23.7472 17.9514 24.3588C17.3345 24.9704 16.5003 25.3122 15.6316 25.309V25.313ZM15.6316 20.413C15.3089 20.4144 14.9937 20.5113 14.7261 20.6916C14.4585 20.8719 14.2502 21.1274 14.1277 21.4259C14.0052 21.7244 13.974 22.0526 14.0378 22.3689C14.1016 22.6852 14.2577 22.9755 14.4863 23.2032C14.715 23.4308 15.0059 23.5857 15.3225 23.6481C15.6391 23.7106 15.9669 23.6778 16.2649 23.554C16.5629 23.4302 16.8177 23.2209 16.9968 22.9525C17.176 22.6841 17.2715 22.3687 17.2715 22.046C17.2694 21.6121 17.0958 21.1966 16.7886 20.8901C16.4814 20.5836 16.0655 20.4111 15.6316 20.41V20.413ZM16.4514 19.597H14.8015V10.617H16.4514V19.597ZM16.4514 26.944H14.8015V24.494H16.4514V26.944ZM28.2114 9.557L25.7415 7.108L26.9114 5.95401L29.3716 8.40301L28.2114 9.557ZM25.2615 11.189L24.1016 10.035L25.7415 8.40301L26.9114 9.557L25.2615 11.189ZM3.0415 9.557L1.88159 8.40301L4.35156 5.95401L5.51147 7.108L3.0415 9.557ZM5.99145 11.189L4.35156 9.557L5.51147 8.40301L7.16138 10.035L5.99145 11.189Z" fill="#CAC63B"/>
</svg>
