<svg width="18" height="16" viewBox="0 0 18 16" fill="none" xmlns="http://www.w3.org/2000/svg">
<path d="M11.9313 12.4768L9.15229 11.0874C8.89018 10.9562 8.72727 10.6927 8.72727 10.3994V9.41585C8.79389 9.3344 8.864 9.2416 8.93644 9.1392C9.29687 8.63011 9.58574 8.06342 9.79578 7.45222C10.2063 7.264 10.4727 6.85818 10.4727 6.4V5.23636C10.4727 4.95622 10.368 4.6848 10.1818 4.47273V2.92538C10.1981 2.76538 10.2621 1.81295 9.57324 1.0272C8.97571 0.3456 8.00611 0 6.69091 0C5.37571 0 4.40611 0.3456 3.80858 1.02691C3.11971 1.81265 3.18371 2.76538 3.2 2.92509V4.47244C3.01382 4.68451 2.90909 4.95593 2.90909 5.23607V6.39971C2.90909 6.75375 3.06996 7.08393 3.34458 7.30415C3.61105 8.35927 4.16873 9.15433 4.36364 9.40945V10.3721C4.36364 10.6537 4.21004 10.912 3.96305 11.047L1.36785 12.4625C0.523927 12.9233 0 13.806 0 14.7671V16H13.3818V14.8239C13.3818 13.8234 12.8259 12.9242 11.9313 12.4768Z" fill="black" fill-opacity="0.4"/>
<path d="M11.9313 12.4768L9.15229 11.0874C8.89018 10.9562 8.72727 10.6927 8.72727 10.3994V9.41585C8.79389 9.3344 8.864 9.2416 8.93644 9.1392C9.29687 8.63011 9.58574 8.06342 9.79578 7.45222C10.2063 7.264 10.4727 6.85818 10.4727 6.4V5.23636C10.4727 4.95622 10.368 4.6848 10.1818 4.47273V2.92538C10.1981 2.76538 10.2621 1.81295 9.57324 1.0272C8.97571 0.3456 8.00611 0 6.69091 0C5.37571 0 4.40611 0.3456 3.80858 1.02691C3.11971 1.81265 3.18371 2.76538 3.2 2.92509V4.47244C3.01382 4.68451 2.90909 4.95593 2.90909 5.23607V6.39971C2.90909 6.75375 3.06996 7.08393 3.34458 7.30415C3.61105 8.35927 4.16873 9.15433 4.36364 9.40945V10.3721C4.36364 10.6537 4.21004 10.912 3.96305 11.047L1.36785 12.4625C0.523927 12.9233 0 13.806 0 14.7671V16H13.3818V14.8239C13.3818 13.8234 12.8259 12.9242 11.9313 12.4768Z" fill="#FC9B36"/>
<path d="M16.1359 12.8076L13.3073 11.5828C13.2404 11.5494 13.1663 11.4676 13.1025 11.3585L15.0007 11.3571C15.0007 11.3571 15.1104 11.3679 15.2806 11.3679C15.5927 11.3679 16.048 11.3324 16.4442 11.1622C16.6819 11.0598 16.8588 10.8576 16.9297 10.6074C17.0013 10.3549 16.9559 10.0876 16.8058 9.87345C16.2633 9.10138 14.9969 7.08392 14.9574 5.03767C14.9565 5.00247 14.8419 1.52262 11.4054 1.4944C11.0601 1.49731 10.7337 1.53978 10.4244 1.61454C10.6548 2.22371 10.6336 2.76887 10.6179 2.94574V4.32262C10.8064 4.59083 10.9088 4.90938 10.9088 5.23636V6.4C10.9088 6.95476 10.6167 7.46822 10.1504 7.75622C9.9328 8.34443 9.6448 8.89396 9.29251 9.39142C9.24887 9.45338 9.20582 9.51185 9.16364 9.56713V10.3991C9.16364 10.5277 9.23229 10.6391 9.3472 10.6964L12.1263 12.0858C13.1697 12.6077 13.8179 13.6564 13.8179 14.8233V16H17.4545V14.9245C17.4545 14.025 16.9548 13.2169 16.1359 12.8076Z" fill="black" fill-opacity="0.4"/>
<path d="M16.1359 12.8076L13.3073 11.5828C13.2404 11.5494 13.1663 11.4676 13.1025 11.3585L15.0007 11.3571C15.0007 11.3571 15.1104 11.3679 15.2806 11.3679C15.5927 11.3679 16.048 11.3324 16.4442 11.1622C16.6819 11.0598 16.8588 10.8576 16.9297 10.6074C17.0013 10.3549 16.9559 10.0876 16.8058 9.87345C16.2633 9.10138 14.9969 7.08392 14.9574 5.03767C14.9565 5.00247 14.8419 1.52262 11.4054 1.4944C11.0601 1.49731 10.7337 1.53978 10.4244 1.61454C10.6548 2.22371 10.6336 2.76887 10.6179 2.94574V4.32262C10.8064 4.59083 10.9088 4.90938 10.9088 5.23636V6.4C10.9088 6.95476 10.6167 7.46822 10.1504 7.75622C9.9328 8.34443 9.6448 8.89396 9.29251 9.39142C9.24887 9.45338 9.20582 9.51185 9.16364 9.56713V10.3991C9.16364 10.5277 9.23229 10.6391 9.3472 10.6964L12.1263 12.0858C13.1697 12.6077 13.8179 13.6564 13.8179 14.8233V16H17.4545V14.9245C17.4545 14.025 16.9548 13.2169 16.1359 12.8076Z" fill="#FC9B36"/>
</svg>
