<svg width="20" height="20" viewBox="0 0 20 20" fill="none" xmlns="http://www.w3.org/2000/svg">
<path d="M17.198 2.8877C15.2632 0.962567 12.791 0 10.1038 0C4.62195 0 0.107487 4.38503 0.107487 9.94652C0.107487 11.6578 0.537436 13.4759 1.39733 14.9733L0 20L5.26688 18.7166C6.66421 19.5722 8.38401 19.893 9.99632 19.893C15.4782 19.893 19.9926 15.508 19.9926 9.94652C20.1001 7.37968 19.0252 4.81283 17.198 2.8877ZM10.1038 18.2888C8.59898 18.2888 7.09416 17.861 5.80431 17.1123L5.58934 16.8984L2.36472 17.754L3.22462 14.7594L3.00964 14.5455C2.25723 13.1551 1.82728 11.6578 1.82728 10.0535C1.7198 5.5615 5.48185 1.71123 10.1038 1.71123C12.361 1.71123 14.4033 2.56685 16.0156 4.17112C17.5204 5.66845 18.4878 7.80749 18.4878 10.0535C18.4878 14.5455 14.7258 18.2888 10.1038 18.2888ZM14.7258 12.0856C14.5108 11.9786 13.2209 11.3369 13.006 11.2299C12.791 11.123 12.576 11.123 12.4685 11.3369C12.2535 11.5508 11.8236 12.1925 11.6086 12.2995C11.3937 12.5134 11.3937 12.5134 11.0712 12.4064C10.7487 12.2995 10.1038 11.9786 9.02893 11.123C8.27652 10.4813 7.73908 9.62567 7.6316 9.41177C7.41662 9.19786 7.6316 8.98396 7.73908 8.87701C7.84657 8.77005 7.95406 8.6631 8.16903 8.4492C8.27652 8.34225 8.38401 8.23529 8.38401 8.12834C8.49149 7.91444 8.49149 7.91444 8.38401 7.70054C8.38401 7.48663 7.84657 6.31016 7.6316 5.7754C7.41662 5.34759 7.20165 5.34759 7.09416 5.34759C6.87919 5.34759 6.87919 5.34759 6.66421 5.34759C6.44924 5.34759 6.12677 5.45455 5.9118 5.66845C5.69683 5.88235 5.0519 6.52407 5.0519 7.80749C5.0519 9.09091 6.01929 10.2674 6.01929 10.3743C6.12677 10.5882 7.73908 13.0481 10.3188 14.1176C10.8562 14.3316 11.3937 14.5455 11.7161 14.6524C12.2535 14.8663 12.8985 14.8663 13.2209 14.7594C13.6509 14.6524 14.7258 14.1176 14.9407 13.5829C15.1557 13.0481 15.1557 12.5134 15.1557 12.4064C15.0482 12.2995 14.8332 12.1925 14.7258 12.0856Z" fill="#CAC63B" fill-opacity="0.8"/>
</svg>
